<svg width="253" height="175" viewBox="0 0 253 175" fill="none" xmlns="http://www.w3.org/2000/svg">
<path fill-rule="evenodd" clip-rule="evenodd" d="M95.581 172.766C137.613 184.586 158.065 139.226 194.079 142.677C213.793 144.566 253.088 154.141 253 84.3953C252.78 39.367 211.277 28.0916 168.478 51.1836C155.885 56.1088 145.941 54.5825 135.146 49.6889C124.351 44.7954 110.466 22.9489 84.2985 18.4546C5.55092 4.92986 -61.8278 128.501 95.581 172.766Z" fill="#E2D2FE" fill-opacity="0.64"/>
<path fill-rule="evenodd" clip-rule="evenodd" d="M195.466 59.4832C196.255 59.0996 197.669 59.8431 196.848 61.0397C195.031 63.6895 202.06 68.9823 199.804 64.3182C199.562 63.8195 198.325 60.3708 200.076 62.1515C201.826 63.9318 204.267 71.7998 202.688 74.5106C201.303 76.8895 197.637 78.0215 192.633 78.1555L192.408 78.1603L192.301 78.1667C189.351 78.3039 187.114 76.4783 185.67 72.9229L185.601 72.7495C184.139 69.028 184.54 66.0448 186.904 64.0333C186.947 63.9968 186.993 63.9639 187.041 63.935L187.116 63.8949L195.466 59.4832Z" fill="white"/>
<path fill-rule="evenodd" clip-rule="evenodd" d="M195.889 60.7451L187.553 64.7973C185.556 66.4974 185.216 69.026 186.534 72.3828C186.997 73.5608 188.154 76.3663 188.154 75.2645C188.154 74.9203 195.889 69.8642 197.373 70.3589C198.745 70.8163 196.28 66.6932 195.589 64.7973L195.889 60.6416L196.118 60.2275" fill="#E7EAEE"/>
<path fill-rule="evenodd" clip-rule="evenodd" d="M184.768 63.7863C185.322 63.7863 182.183 65.2628 182.345 67.9857C182.507 70.7081 184.634 75.7264 184.117 75.9243C183.599 76.1221 182.618 74.6591 182.421 74.1415C181.19 70.9216 180.957 69.6079 181.001 67.7297C181.059 65.2713 182.352 63.7863 184.768 63.7863Z" fill="#E7EAEE"/>
<path d="M198.737 71.3783C199.934 71.3783 200.904 69.1868 200.904 66.4835C200.904 63.7801 199.934 61.5886 198.737 61.5886C197.541 61.5886 196.571 63.7801 196.571 66.4835C196.571 69.1868 197.541 71.3783 198.737 71.3783Z" fill="#E7EAEE"/>
<path fill-rule="evenodd" clip-rule="evenodd" d="M47.3899 118.092C47.3899 109.599 48.3336 105.907 58.467 101.272C79.2353 92.8771 79.2353 92.5533 119.023 77.1709C129.545 73.1235 151.728 82.8184 161.374 78.7554C167.805 76.047 173.818 74.0356 179.131 71.3492C179.646 74.7089 182.972 80.3969 184.143 81.3747C177.921 82.6803 171.903 84.6994 166.088 87.4323C153.517 93.3394 160.967 91.7296 141.056 110.506C139.368 112.097 133.168 115.726 124.202 119.505C124.202 119.505 106.146 117.08 98.9043 114.068C91.5342 111.002 80.3673 101.272 80.3673 101.272C80.3673 101.272 67.3425 109.769 59.8549 113.588C56.3505 115.376 47.3899 118.092 47.3899 118.092Z" fill="white"/>
<path fill-rule="evenodd" clip-rule="evenodd" d="M47.3895 113.679C47.3895 111.685 47.1789 110.294 47.3895 108.755C48.0764 103.738 50.7672 101.171 58.522 97.6237C79.2903 89.2293 79.235 88.1395 119.022 72.7571C129.544 68.7097 151.727 78.4046 161.373 74.3416C167.804 71.6332 173.818 69.6217 179.131 66.9354C179.146 67.0317 178.593 71.6227 178.593 71.6227C178.593 71.6227 165.477 78.549 156.801 80.0176C147.583 81.578 134.921 74.3416 122.278 77.9006C103.025 83.3206 58.6564 100.356 53.4074 104.625C49.2834 107.979 47.3895 113.679 47.3895 113.679Z" fill="#E7EAEE"/>
<path fill-rule="evenodd" clip-rule="evenodd" d="M195.466 59.4832C196.254 59.0996 197.669 59.8431 196.848 61.0401C195.606 62.8517 196.986 67.0583 197.827 69.6202C198.216 70.8051 198.49 71.6389 198.334 71.7203C197.843 71.9767 197.237 71.7869 196.981 71.2958C195.591 68.6372 194.793 66.5258 194.594 64.9209C194.495 64.1224 194.473 63.35 194.529 62.6045L194.537 62.5186L188.113 65.6411L188.031 65.7157C186.581 67.0759 185.943 68.6552 187.005 71.4527L187.067 71.6152C188.219 74.5483 190.169 76.652 192.198 76.5645L192.357 76.5565C196.865 76.4658 199.56 75.1092 200.522 73.4569C201.731 71.3797 202.06 68.9826 199.803 64.3182C199.562 63.8199 198.325 60.3712 200.075 62.1515C201.826 63.9318 204.266 71.7998 202.688 74.5106C201.37 76.7736 197.989 77.9083 193.355 78.1286C193.382 78.2466 193.388 78.3717 193.369 78.4985C192.93 81.4774 191.571 83.3512 189.297 83.8932C187.559 84.3077 185.69 83.7588 183.978 82.4355C177.965 83.7267 172.144 85.6948 166.515 88.3402L165.681 88.735C162.809 90.1069 161.162 91.0265 159.96 91.9205C159.255 92.4445 158.672 92.9818 158.046 93.6727L157.944 93.7879C157.64 94.1402 156.978 94.9487 156.225 95.8691L156.224 95.8708L156.223 95.872L156.222 95.8732L156.22 95.876L156.218 95.8776C155.216 97.1018 154.054 98.5214 153.359 99.3251L153.024 99.7115C150.199 102.948 146.638 106.621 141.744 111.236L141.607 111.362C139.772 113.001 134.896 115.774 128.816 118.569C145.596 117.973 157.697 111.568 165.232 99.3439C165.563 98.8059 166.304 98.7047 166.767 99.1341C179.725 111.134 194.738 116.688 211.866 115.821C229.038 114.951 241.641 110.488 249.711 102.474C250.104 102.084 250.739 102.086 251.129 102.48C251.52 102.872 251.517 103.508 251.124 103.898C242.659 112.304 224.685 118.612 207.059 119.505C189.917 120.373 179.689 113.31 166.611 101.701L166.292 101.416L166.178 101.591C157.895 114.143 139.9 123.299 121.943 123.428L121.38 123.43C103.012 123.43 92.4187 114.536 80.0267 102.38L79.93 102.285L79.8859 102.323L79.5621 102.595L79.0914 102.991L78.8033 103.234C67.1917 113.005 58.5277 120.296 45.4945 122.159L45.0788 122.217C30.3841 125.19 8.09731 117.271 4.67246 113.389C1.53446 109.832 5.19464 112.043 6.19947 112.65C6.29128 112.705 6.36097 112.747 6.40122 112.77C16.1271 118.339 27.3411 120.459 40.7956 118.624C42.6521 118.371 44.4974 118.036 46.3307 117.619L46.3094 117.421C45.722 111.841 45.7184 109.403 46.565 106.604C47.7162 102.797 50.5117 99.9036 55.5401 97.6037L56.9247 96.9914C63.136 94.2541 68.0689 92.199 73.1855 90.202L73.5603 90.0559C74.134 89.8328 74.7154 89.6082 75.3089 89.3806L75.8903 89.1588C76.1001 89.0845 78.8346 88.0004 82.9923 86.3521L82.9939 86.3517L83.0047 86.3472L83.0067 86.3464L83.0075 86.346C92.6185 82.5358 109.815 75.7187 121.033 71.3813C123.459 70.448 126.398 70.1378 130.002 70.324L130.312 70.3413C133.012 70.5002 135.667 70.8665 140.021 71.6196L143.846 72.2897C148.116 73.0288 150.186 73.3205 152.602 73.4926C153.362 73.5468 154.084 73.6138 154.769 73.6776C157.31 73.9135 159.355 74.1037 160.985 73.4176C162.434 72.8073 163.854 72.2179 165.246 71.6405C169.799 69.7518 174.046 67.9904 177.987 66.0311C178.258 64.2785 178.948 62.9845 180.031 62.1322C181.7 60.8178 184.063 60.7957 186.112 61.5926C186.629 61.7936 186.884 62.375 186.684 62.891C186.618 63.0583 186.201 62.9813 185.611 62.8725C184.376 62.6446 182.383 62.2771 181.272 63.7083C180.035 65.3009 179.624 67.74 180.719 72.5429C181.513 76.0237 186.659 81.942 188.832 81.942C191.255 81.942 191.821 79.5895 192.143 78.2554L192.163 78.1719C189.281 78.2466 187.092 76.4229 185.67 72.9233L185.601 72.7499C184.139 69.028 184.54 66.0447 186.904 64.0333C186.947 63.9968 186.993 63.9639 187.041 63.9354L187.116 63.8953L195.466 59.4832ZM182.127 80.6219C182.026 80.4991 181.926 80.3731 181.826 80.2443C181.788 80.2042 181.753 80.1637 181.721 80.126C181.63 80.0148 181.536 79.9021 181.44 79.7873C180.663 78.8536 179.762 77.7715 179.057 76.2114L178.955 75.9839C177.823 73.4493 177.688 70.6021 177.758 68.2544L177.768 67.982L177.709 68.012C173.034 70.3256 167.948 72.6468 162.452 74.9752L161.764 75.2665C159.41 76.2576 156.472 76.9578 152.748 76.717L152.46 76.6973C149.916 76.516 147.776 76.2118 143.289 75.433L139.939 74.8456C130.495 73.2105 125.769 72.9554 121.875 74.4115C121.875 74.4115 63.8016 96.2571 56.3638 99.4326C51.8406 101.502 50.3058 103.449 48.4352 106.604C47.4674 108.235 47.5653 112.737 47.6335 115.863C47.6448 116.388 47.6552 116.874 47.66 117.301C58.6405 114.555 69.1955 108.845 79.3322 100.161C79.7318 99.819 80.328 99.8435 80.698 100.217C81.5181 101.047 82.3519 101.848 83.1993 102.62L125.018 85.1491C125.133 85.101 125.252 85.0761 125.369 85.0717C125.684 84.9232 126.024 84.8005 126.388 84.7034C130.034 83.7339 132.947 85.3112 134.958 89.1937L138.604 86.5346C139.141 86.1426 139.905 86.3729 140.136 86.9969C143.462 95.9867 142.493 102.147 137.016 105.119C131.492 108.116 126.688 105.645 122.943 98.153C122.753 97.7731 122.828 97.3337 123.091 97.0376C122.198 93.4107 122.032 90.521 122.64 88.4285L86.0004 105.033C91.479 109.481 97.4948 112.835 104.052 115.098C104.202 114.954 104.365 114.831 104.525 114.744C110.048 111.718 123.657 108.184 127.018 107.311C127.309 107.235 127.523 107.179 127.649 107.146C129.226 106.723 127.61 108.197 127.134 108.417L127.073 108.442L107.211 116.091C113.12 117.774 119.446 118.615 126.195 118.615C126.579 118.615 126.96 118.612 127.339 118.606L127.783 118.317L127.784 118.317L127.785 118.317C132.032 115.556 139.135 110.939 140.368 109.777L140.943 109.233C145.032 105.264 148.076 101.458 150.733 98.1346C153.648 94.4885 156.097 91.4254 158.951 89.3702C161.17 87.7725 161.974 87.4073 163.864 86.5495C164.37 86.32 164.953 86.0551 165.662 85.7221C170.675 83.366 176.368 82.0022 181.712 80.7214L182.127 80.6219ZM126.904 86.6422C129.793 85.8742 131.957 87.2312 133.607 91.0201L129.345 94.399L129.34 94.4006L124.937 96.1384L124.827 95.6549C123.621 90.1883 124.406 87.3062 126.904 86.6422ZM133.607 91.0201L129.348 94.3978C129.434 94.3641 129.522 94.3428 129.61 94.3332C129.69 94.3248 129.771 94.326 129.849 94.3368C130.036 94.3617 130.214 94.4395 130.36 94.5615C130.456 94.6417 130.538 94.7405 130.6 94.8556C131.605 96.6656 132.382 97.0965 133.171 96.654C134.006 96.1857 134.269 94.4247 133.658 91.2785L133.607 91.0201ZM78.3547 132.208C78.821 131.908 82.0365 130.339 79.1729 133.288C76.3092 136.237 54.0065 148.748 41.9676 149.441C30.364 150.108 20.0617 145.263 11.0981 138.92L10.801 138.708L10.7418 138.784C10.345 139.288 9.93729 139.744 9.51832 140.154L9.33808 140.327C8.57885 141.039 7.26481 141.846 5.36629 142.784C4.86959 143.029 3.11448 143.255 4.02265 142.329C4.93086 141.403 6.91862 140.069 8.07625 139.305C8.83279 138.805 9.07173 138.221 9.30879 137.641C9.43445 137.334 9.5596 137.027 9.76107 136.736C10.0847 136.268 10.7325 136.162 11.1878 136.503C20.0244 143.126 30.3468 146.657 41.9676 145.988C53.6361 145.316 65.6875 140.359 78.3547 132.208ZM146.987 138.604C147.394 138.228 147.394 135.548 146.987 135.923C142.48 140.082 133.044 143.74 121.4 144.41C109.742 145.081 100.576 143.248 93.884 138.945C93.4182 138.646 91.1115 137.853 92.4977 139.247C93.884 140.64 109.466 147.909 121.515 147.215L121.876 147.194C133.749 146.47 142.119 143.095 146.987 138.604ZM138.757 89.1299L138.696 88.9497L135.676 91.1533L135.732 91.4647C136.339 95.0169 135.925 97.3385 134.241 98.3528L134.152 98.4042C132.397 99.3884 130.744 98.6931 129.362 96.67L129.301 96.5801L125.24 98.2204L125.334 98.391C128.438 103.992 131.879 105.55 135.928 103.425L136.059 103.356C140.125 101.149 141.127 96.646 138.897 89.5664L138.757 89.1299Z" fill="#00160A"/>
</svg>
